mtllib BuzzCola.mtl
s 1
v -0.949741 0.786826 -0.014290
v -0.949741 0.786826 -0.014290
v -0.949741 0.786826 -0.014290
v -0.967938 0.815585 -0.012377
v -0.967938 0.815585 -0.012377
v -0.978657 0.815584 -0.011250
v -0.978657 0.815584 -0.011250
v -0.978657 0.798643 -0.011250
v -0.978657 0.798643 -0.011250
v -0.979458 0.786826 0.086031
v -0.979458 0.786826 0.086031
v -0.993677 0.815585 0.074516
v -0.993677 0.815585 0.074516
v -1.002053 0.815584 0.067734
v -1.002053 0.815584 0.067734
v -0.999666 0.786826 -0.106240
v -0.999666 0.786826 -0.106240
v -1.002053 0.798643 0.067734
v -1.002053 0.798643 0.067734
v -1.011181 0.815584 -0.092020
v -1.011181 0.815584 -0.092020
v -1.017963 0.815584 -0.083644
v -1.017963 0.815584 -0.083644
v -1.016945 0.798643 -0.083343
v -1.016945 0.798643 -0.083343
v -0.949741 0.382441 -0.014290
v -0.949741 0.382441 -0.014290
v -1.052625 0.804240 0.049719
v -1.061116 0.798967 -0.028653
v -0.960830 0.362012 -0.013124
v -0.960830 0.362012 -0.013124
v -0.960830 0.362012 -0.013124
v -1.073320 0.815584 0.117759
v -1.073320 0.815584 0.117759
v -1.073320 0.815584 0.117759
v -1.074447 0.815584 0.107040
v -1.074447 0.815584 0.107040
v -1.071408 0.786826 0.135956
v -1.071408 0.786826 0.135956
v -1.071408 0.786826 0.135956
v -1.071408 0.786826 0.135956
v -1.074447 0.798643 0.107040
v -1.074447 0.798643 0.107040
v -0.979458 0.382441 0.086031
v -1.085697 0.798331 0.000000
v -0.988122 0.362012 0.079014
v -0.988122 0.362012 0.079014
v -1.096947 0.815584 -0.107041
v -1.096947 0.815584 -0.107041
v -1.096947 0.815584 -0.107041
v -1.098074 0.815584 -0.117759
v -1.098074 0.815584 -0.117759
v -0.999666 0.382441 -0.106239
v -1.097965 0.798643 -0.107342
v -1.097965 0.798643 -0.107342
v -1.099987 0.786826 -0.135956
v -1.099987 0.786826 -0.135956
v -1.106394 0.804630 0.055519
v -1.006683 0.362012 -0.097575
v -1.006683 0.362012 -0.097575
v -1.114885 0.799358 -0.022854
v -1.153431 0.815584 0.083644
v -1.153431 0.815584 0.083644
v -1.153431 0.798643 0.083644
v -1.153431 0.798643 0.083644
v -1.160213 0.815584 0.092020
v -1.160213 0.815584 0.092020
v -1.169341 0.815585 -0.067734
v -1.169341 0.815585 -0.067734
v -1.169341 0.815585 -0.067734
v -1.169341 0.798643 -0.067734
v -1.169341 0.798643 -0.067734
v -1.071408 0.382441 0.135956
v -1.071408 0.382441 0.135956
v -1.177717 0.815585 -0.074516
v -1.177717 0.815585 -0.074516
v -1.171728 0.786826 0.106239
v -1.171728 0.786826 0.106239
v -1.072573 0.362012 0.124867
v -1.072573 0.362012 0.124867
v -1.072573 0.362012 0.124867
v -1.085697 0.362012 0.000000
v -1.192737 0.815585 0.011250
v -1.192737 0.815585 0.011250
v -1.192737 0.798643 0.011250
v -1.192737 0.798643 0.011250
v -1.191936 0.786826 -0.086031
v -1.191936 0.786826 -0.086031
v -1.099987 0.382441 -0.135956
v -1.203456 0.815585 0.012377
v -1.203456 0.815585 0.012377
v -1.098821 0.362012 -0.124868
v -1.098821 0.362012 -0.124868
v -1.221653 0.786826 0.014289
v -1.221653 0.786826 0.014289
v -1.221653 0.786826 0.014289
v -1.164711 0.362012 0.097575
v -1.164711 0.362012 0.097575
v -1.171728 0.382441 0.106239
v -1.183272 0.362012 -0.079015
v -1.183272 0.362012 -0.079015
v -1.191936 0.382441 -0.086031
v -1.210564 0.362012 0.013124
v -1.210564 0.362012 0.013124
v -1.210564 0.362012 0.013124
v -1.221653 0.382441 0.014290
v -1.221653 0.382441 0.014290
vn 0.878818 0.000000 -0.477158
vn 0.845551 0.533187 0.027476
vn 0.958820 0.000000 0.284015
vn -0.000017 1.000000 -0.000001
vn 0.821360 0.533188 -0.202676
vn -0.000011 1.000000 0.000001
vn -0.994699 -0.011969 0.102131
vn -0.994992 0.000000 0.099954
vn -0.002884 0.999996 0.000287
vn 0.578467 0.533186 0.617324
vn 0.855917 0.000000 0.517113
vn -0.000009 1.000000 -0.000007
vn 0.724104 0.533186 0.437477
vn -0.000014 1.000000 -0.000009
vn -0.683768 0.000001 -0.729699
vn 0.517113 0.000000 -0.855917
vn 0.617323 0.533188 -0.578466
vn -0.855917 0.000000 -0.517114
vn -0.002252 0.999996 -0.001824
vn -0.000005 1.000000 0.000003
vn 0.437476 0.533188 -0.724103
vn 0.000000 1.000000 0.000000
vn -0.628982 -0.023962 0.777051
vn -0.630980 -0.011992 0.775707
vn -0.001825 0.999996 0.002237
vn 0.836222 -0.307554 -0.454031
vn 0.947415 -0.153777 0.280637
vn 0.000002 0.997745 -0.067123
vn 0.000002 0.997745 -0.067123
vn 0.000000 -1.000000 0.000000
vn 0.784712 -0.450219 -0.426063
vn 0.856148 -0.450218 0.253602
vn 0.411358 0.506738 0.757628
vn 0.000000 1.000000 0.000000
vn -0.244849 0.506740 0.826597
vn -0.000003 1.000000 -0.000006
vn 0.032478 0.000000 -0.999473
vn 0.411359 0.506739 0.757628
vn 0.477158 0.000000 0.878817
vn -0.284015 0.000000 0.958820
vn -0.244849 0.506740 0.826598
vn -0.000303 0.999996 -0.002883
vn -0.239571 0.000000 -0.970879
vn 0.747825 -0.249303 0.615309
vn 0.000002 1.000000 -0.000007
vn -0.000001 -1.000000 0.000000
vn 0.601494 -0.475573 0.641899
vn 0.476690 -0.044263 0.877956
vn 0.000000 1.000000 0.000000
vn -0.284016 0.000000 0.958820
vn 0.000000 1.000000 0.000000
vn -0.202675 0.533187 -0.821361
vn 0.615310 -0.249305 -0.747824
vn 0.343713 0.698376 0.627799
vn -0.284016 -0.000001 0.958820
vn 0.027477 0.533187 -0.845551
vn -0.239570 0.000000 -0.970879
vn 0.000002 0.997745 -0.067123
vn 0.000000 -1.000000 0.000000
vn 0.641899 -0.475575 -0.601494
vn 0.000002 0.997745 -0.067123
vn 0.000000 1.000000 0.000000
vn 0.729700 -0.000003 -0.683768
vn 0.517113 -0.000003 -0.855917
vn 0.001824 0.999996 -0.002253
vn 0.000000 1.000000 0.000000
vn -0.437476 0.533188 0.724103
vn 0.000000 1.000000 0.000000
vn 0.958820 0.000008 0.284013
vn 0.481078 -0.022134 0.876398
vn 0.958820 0.000004 0.284014
vn 0.218785 0.893466 0.392239
vn 0.454031 -0.307553 0.836222
vn -0.280637 -0.153777 0.947415
vn 0.000000 1.000000 0.000000
vn -0.724103 0.533188 -0.437476
vn -0.617323 0.533187 0.578466
vn -0.517113 0.000000 0.855917
vn -0.000001 -1.000000 0.000000
vn 0.426063 -0.450218 0.784713
vn -0.253602 -0.450221 0.856147
vn 0.000000 -1.000000 0.000000
vn 0.000000 1.000000 0.000000
vn 0.999473 0.000003 0.032477
vn 0.970879 -0.000002 -0.239570
vn 0.002882 0.999996 -0.000304
vn -0.578466 0.533188 -0.617324
vn -0.855917 0.000000 -0.517113
vn -0.093702 -0.249305 -0.963881
vn 0.000000 1.000000 0.000000
vn -0.821361 0.533188 0.202676
vn 0.000000 -1.000000 0.000000
vn 0.028571 -0.475576 -0.879211
vn -0.845551 0.533188 -0.027476
vn -0.878817 0.000000 0.477159
vn -0.958820 0.000000 -0.284015
vn 0.000000 -1.000000 0.000000
vn -0.641897 -0.475578 0.601493
vn -0.615309 -0.249306 0.747825
vn 0.000000 -1.000000 0.000000
vn -0.601493 -0.475576 -0.641898
vn -0.747825 -0.249305 -0.615309
vn 0.000000 -1.000000 0.000000
vn -0.856147 -0.450220 -0.253602
vn -0.784711 -0.450220 0.426064
vn -0.836221 -0.307556 0.454031
vn -0.947415 -0.153777 -0.280637
vt 0.176529 0.985826
vt 0.246476 0.991987
vt 0.981941 0.984307
vt 0.035341 0.160315
vt 0.246476 1.024232
vt 0.036222 0.160561
vt 0.062718 0.187586
vt 0.058375 0.187586
vt 0.101040 0.230174
vt 0.119707 0.991987
vt 0.920825 0.984307
vt 0.035341 0.165716
vt 0.119707 1.024232
vt 0.036222 0.165470
vt 0.066177 0.182582
vt 0.318376 0.985749
vt 0.373246 0.991987
vt 0.061834 0.182583
vt 0.073206 0.106341
vt 0.041007 0.156496
vt 0.373246 1.024232
vt 0.041371 0.157090
vt 0.057827 0.187584
vt 0.053529 0.187648
vt 0.073327 0.351296
vt 0.176529 0.030332
vt 0.981941 0.029984
vt 0.005175 0.923363
vt 0.005175 0.718639
vt 0.030032 0.152749
vt 0.203643 -0.004699
vt 0.984789 -0.006089
vt -0.007063 1.024232
vt 0.041007 0.169535
vt 1.007096 1.024232
vt 0.041371 0.168942
vt 0.066177 0.175503
vt -0.007063 0.991987
vt 0.836222 0.984307
vt 0.982631 0.984307
vt 1.007096 0.991987
vt 0.009224 0.052959
vt 0.061834 0.175503
vt 0.920825 0.029984
vt 0.008625 0.234844
vt 0.041941 0.145366
vt 0.925623 -0.006089
vt 0.008012 0.400219
vt 0.048654 0.157090
vt 0.054368 0.182576
vt 0.049019 0.156496
vt 0.500016 1.024232
vt 0.318376 0.030295
vt 0.007050 0.400882
vt 0.049981 0.182512
vt 0.500016 0.991987
vt 0.508991 0.985717
vt 0.111843 0.923363
vt 0.025099 0.170574
vt 0.337549 -0.004657
vt 0.111843 0.718639
vt 0.048654 0.168942
vt 0.062718 0.170496
vt 0.058375 0.170496
vt 0.073622 0.104807
vt 0.049019 0.169535
vt 0.880326 1.024232
vt 0.053804 0.160561
vt 0.054368 0.175497
vt 0.072762 0.350345
vt 0.050025 0.175497
vt 0.072771 0.350385
vt 0.836222 0.029984
vt 0.982631 0.029984
vt 0.054684 0.160315
vt 0.626786 1.024232
vt 0.880326 0.991987
vt 0.898027 0.984307
vt 0.053851 0.152749
vt 0.815844 -0.006089
vt 0.982631 -0.006089
vt 0.041941 0.170574
vt 0.053804 0.165470
vt 0.057827 0.170493
vt 0.053484 0.170493
vt 0.103459 0.232398
vt 0.626786 0.991987
vt 0.699605 0.985749
vt 0.508991 0.030280
vt 0.054684 0.165716
vt 0.753556 1.024232
vt 0.030032 0.188400
vt 0.508991 -0.004640
vt 0.753556 0.991987
vt 0.836912 0.984307
vt 0.841452 0.985826
vt 0.058784 0.170574
vt 0.893230 -0.006089
vt 0.898027 0.029984
vt 0.041941 0.195783
vt 0.680431 -0.004657
vt 0.699605 0.030295
vt 0.053851 0.188400
vt 0.814338 -0.004699
vt 0.836763 -0.006089
vt 0.836912 0.029984
vt 0.841452 0.030332
g i_soda_geoShape
usemtl buzz_cola_m
f 11/11/11 27/27/27 3/3/3
f 27/27/27 11/11/11 44/44/44
f 39/39/39 44/44/44 11/11/11
f 44/44/44 39/39/39 44/44/44
f 73/73/73 44/44/44 39/39/39
f 44/44/44 73/73/73 47/47/47
f 80/80/80 47/47/47 73/73/73
f 47/47/47 80/80/80 80/80/80
f 80/80/80 80/80/80 80/80/80
f 80/80/80 80/80/80 27/27/27
f 27/27/27 27/27/27 80/80/80
f 27/27/27 27/27/27 32/32/32
f 44/44/44 32/32/32 27/27/27
f 32/32/32 44/44/44 47/47/47
f 47/47/47 47/47/47 44/44/44
f 47/47/47 47/47/47 29/29/29
f 29/29/29 29/29/29 47/47/47
f 29/29/29 29/29/29 28/28/28
f 61/61/61 28/28/28 29/29/29
f 28/28/28 61/61/61 58/58/58
f 58/58/58 58/58/58 61/61/61
f 58/58/58 58/58/58 31/31/31
f 31/31/31 31/31/31 58/58/58
f 31/31/31 31/31/31 26/26/26
f 60/60/60 26/26/26 31/31/31
f 26/26/26 60/60/60 53/53/53
f 93/93/93 53/53/53 60/60/60
f 53/53/53 93/93/93 89/89/89
f 101/101/101 89/89/89 93/93/93
f 89/89/89 101/101/101 102/102/102
f 104/104/104 102/102/102 101/101/101
f 102/102/102 104/104/104 102/102/102
f 107/107/107 102/102/102 104/104/104
f 102/102/102 107/107/107 88/88/88
f 96/96/96 88/88/88 107/107/107
f 88/88/88 96/96/96 96/96/96
f 96/96/96 96/96/96 96/96/96
f 96/96/96 96/96/96 26/26/26
f 26/26/26 26/26/26 96/96/96
f 26/26/26 26/26/26 1/1/1
f 53/53/53 1/1/1 26/26/26
f 1/1/1 53/53/53 16/16/16
f 89/89/89 16/16/16 53/53/53
f 16/16/16 89/89/89 57/57/57
f 102/102/102 57/57/57 89/89/89
f 57/57/57 102/102/102 88/88/88
f 88/88/88 88/88/88 102/102/102
f 88/88/88 88/88/88 38/38/38
f 38/38/38 38/38/38 88/88/88
f 38/38/38 38/38/38 33/33/33
f 10/10/10 33/33/33 38/38/38
f 33/33/33 10/10/10 13/13/13
f 2/2/2 13/13/13 10/10/10
f 13/13/13 2/2/2 5/5/5
f 17/17/17 5/5/5 2/2/2
f 5/5/5 17/17/17 21/21/21
f 56/56/56 21/21/21 17/17/17
f 21/21/21 56/56/56 52/52/52
f 87/87/87 52/52/52 56/56/56
f 52/52/52 87/87/87 76/76/76
f 94/94/94 76/76/76 87/87/87
f 76/76/76 94/94/94 91/91/91
f 77/77/77 91/91/91 94/94/94
f 91/91/91 77/77/77 67/67/67
f 41/41/41 67/67/67 77/77/77
f 67/67/67 41/41/41 35/35/35
f 35/35/35 35/35/35 41/41/41
f 35/35/35 35/35/35 48/48/48
f 48/48/48 48/48/48 35/35/35
f 48/48/48 48/48/48 54/54/54
f 70/70/70 54/54/54 48/48/48
f 54/54/54 70/70/70 54/54/54
f 72/72/72 54/54/54 70/70/70
f 54/54/54 72/72/72 45/45/45
f 86/86/86 45/45/45 72/72/72
f 45/45/45 86/86/86 45/45/45
f 65/65/65 45/45/45 86/86/86
f 45/45/45 65/65/65 45/45/45
f 42/42/42 45/45/45 65/65/65
f 45/45/45 42/42/42 45/45/45
f 19/19/19 45/45/45 42/42/42
f 45/45/45 19/19/19 45/45/45
f 9/9/9 45/45/45 19/19/19
f 45/45/45 9/9/9 45/45/45
f 25/25/25 45/45/45 9/9/9
f 45/45/45 25/25/25 54/54/54
f 54/54/54 54/54/54 25/25/25
f 54/54/54 54/54/54 55/55/55
f 55/55/55 55/55/55 54/54/54
f 55/55/55 55/55/55 50/50/50
f 24/24/24 50/50/50 55/55/55
f 50/50/50 24/24/24 23/23/23
f 24/24/24 23/23/23 24/24/24
f 23/23/23 24/24/24 7/7/7
f 8/8/8 7/7/7 24/24/24
f 7/7/7 8/8/8 7/7/7
f 18/18/18 7/7/7 8/8/8
f 7/7/7 18/18/18 15/15/15
f 43/43/43 15/15/15 18/18/18
f 15/15/15 43/43/43 37/37/37
f 64/64/64 37/37/37 43/43/43
f 37/37/37 64/64/64 63/63/63
f 85/85/85 63/63/63 64/64/64
f 63/63/63 85/85/85 84/84/84
f 71/71/71 84/84/84 85/85/85
f 84/84/84 71/71/71 69/69/69
f 69/69/69 69/69/69 71/71/71
f 69/69/69 69/69/69 40/40/40
f 40/40/40 40/40/40 69/69/69
f 40/40/40 40/40/40 74/74/74
f 78/78/78 74/74/74 40/40/40
f 74/74/74 78/78/78 99/99/99
f 95/95/95 99/99/99 78/78/78
f 99/99/99 95/95/95 99/99/99
f 106/106/106 99/99/99 95/95/95
f 99/99/99 106/106/106 98/98/98
f 105/105/105 98/98/98 106/106/106
f 98/98/98 105/105/105 105/105/105
f 105/105/105 105/105/105 105/105/105
f 105/105/105 105/105/105 74/74/74
f 74/74/74 74/74/74 105/105/105
f 74/74/74 74/74/74 81/81/81
f 99/99/99 81/81/81 74/74/74
f 81/81/81 99/99/99 98/98/98
f 98/98/98 98/98/98 99/99/99
f 98/98/98 98/98/98 4/4/4
f 4/4/4 4/4/4 98/98/98
f 4/4/4 4/4/4 6/6/6
f 20/20/20 6/6/6 4/4/4
f 6/6/6 20/20/20 22/22/22
f 51/51/51 22/22/22 20/20/20
f 22/22/22 51/51/51 49/49/49
f 75/75/75 49/49/49 51/51/51
f 49/49/49 75/75/75 68/68/68
f 90/90/90 68/68/68 75/75/75
f 68/68/68 90/90/90 83/83/83
f 66/66/66 83/83/83 90/90/90
f 83/83/83 66/66/66 62/62/62
f 34/34/34 62/62/62 66/66/66
f 62/62/62 34/34/34 36/36/36
f 12/12/12 36/36/36 34/34/34
f 36/36/36 12/12/12 14/14/14
f 4/4/4 14/14/14 12/12/12
f 14/14/14 4/4/4 6/6/6
f 6/6/6 6/6/6 4/4/4
f 6/6/6 6/6/6 30/30/30
f 30/30/30 30/30/30 6/6/6
f 30/30/30 30/30/30 82/82/82
f 46/46/46 82/82/82 30/30/30
f 82/82/82 46/46/46 82/82/82
f 79/79/79 82/82/82 46/46/46
f 82/82/82 79/79/79 82/82/82
f 97/97/97 82/82/82 79/79/79
f 82/82/82 97/97/97 82/82/82
f 103/103/103 82/82/82 97/97/97
f 82/82/82 103/103/103 82/82/82
f 100/100/100 82/82/82 103/103/103
f 82/82/82 100/100/100 82/82/82
f 92/92/92 82/82/82 100/100/100
f 82/82/82 92/92/92 82/82/82
f 59/59/59 82/82/82 92/92/92
f 82/82/82 59/59/59 30/30/30
